<?xml version="1.0" encoding="UTF-8"?>
<svg width="18px" height="18px" viewBox="0 0 18 18" version="1.1" xmlns="http://www.w3.org/2000/svg" xmlns:xlink="http://www.w3.org/1999/xlink">
    <!-- Generator: Sketch 43.2 (39069) - http://www.bohemiancoding.com/sketch -->
    <title>ic_launch_black_24px</title>
    <desc>Created with Sketch.</desc>
    <defs></defs>
    <g id="home" stroke="none" stroke-width="1" fill="none" fill-rule="evenodd">
        <g id="art" transform="translate(-343.000000, -73.000000)">
            <g id="ic_launch_black_24px" transform="translate(340.000000, 69.000000)">
                <polygon id="Shape" points="0 0 24 0 24 24 0 24"></polygon>
                <path d="M19,20 L5,20 L5,6 L12,6 L12,4 L5,4 C3.89,4 3,4.9 3,6 L3,20 C3,21.1 3.89,22 5,22 L19,22 C20.1,22 21,21.1 21,20 L21,13 L19,13 L19,20 Z M14,4 L14,6 L17.59,6 L7.76,15.83 L9.17,17.24 L19,7.41 L19,11 L21,11 L21,4 L14,4 Z" id="Shape" fill="#57656C" fill-rule="nonzero"></path>
            </g>
        </g>
    </g>
</svg>